<?xml version="1.0" encoding="utf-8"?>
<!-- Generator: Adobe Illustrator 24.0.2, SVG Export Plug-In . SVG Version: 6.00 Build 0)  -->
<svg version="1.1" id="Слой_1" xmlns="http://www.w3.org/2000/svg" xmlns:xlink="http://www.w3.org/1999/xlink" x="0px" y="0px"
	 viewBox="0 0 21 21" style="enable-background:new 0 0 21 21;" xml:space="preserve">
<g>
	<path d="M10.6,8.1c-1.9,0-3.4,1.5-3.4,3.4s1.5,3.4,3.4,3.4s3.4-1.5,3.4-3.4S12.4,8.1,10.6,8.1z M12.5,11.5c0,1.1-0.9,1.9-1.9,1.9
		s-1.9-0.9-1.9-1.9c0-1.1,0.9-1.9,1.9-1.9S12.5,10.4,12.5,11.5z"/>
	<path d="M20.8,11.2c-0.1-0.2-0.3-0.6-0.7-1.2c-0.6-0.9-1.2-1.8-1.9-2.7c-2.3-2.6-4.9-4-7.7-4s-5.3,1.3-7.7,4C2.1,8.1,1.5,9,0.9,9.9
		c-0.4,0.7-0.6,1.1-0.7,1.2c-0.1,0.2-0.1,0.4,0,0.6c0.2,0.4,0.4,0.8,0.7,1.2c0.6,1,1.2,1.9,2,2.7c2.3,2.6,4.9,4,7.7,4s5.3-1.3,7.7-4
		c0.7-0.8,1.4-1.7,1.9-2.7c0.4-0.7,0.6-1.1,0.7-1.2C20.9,11.6,20.9,11.4,20.8,11.2z M19.3,11.5l-0.1,0.2c-0.6,1.1-1.3,2.2-2.2,3.1
		c-2,2.3-4.2,3.5-6.6,3.5c-2.3,0-4.5-1.2-6.6-3.5C3.1,14,2.5,13.2,2,12.3c0-0.3-0.1-0.5-0.2-0.7l-0.1-0.2l0.1-0.2
		C2.4,10.1,3.1,9.1,4,8.1c2-2.3,4.2-3.5,6.6-3.5c2.3,0,4.5,1.2,6.6,3.5c0.8,0.9,1.6,2,2.2,3.1L19.3,11.5z"/>
</g>
</svg>
