<?xml version="1.0" encoding="utf-8"?>
<!-- Generator: Adobe Illustrator 24.0.2, SVG Export Plug-In . SVG Version: 6.00 Build 0)  -->
<svg version="1.1" id="Слой_1" xmlns="http://www.w3.org/2000/svg" xmlns:xlink="http://www.w3.org/1999/xlink" x="0px" y="0px"
	 viewBox="0 0 101 25" style="enable-background:new 0 0 101 25;" xml:space="preserve">
<style type="text/css">
	.st0{fill:#FFFFFF;}
</style>
<g>
	<g>
		<ellipse class="st0" cx="88.68" cy="12.54" rx="1.81" ry="1.9"/>
		<path class="st0" d="M42.15,24.86h-0.11c-1.81,0-3.28-1.47-3.28-3.28V0.21h0.11c1.81,0,3.28,1.47,3.28,3.28V24.86z"/>
		<path class="st0" d="M88.68,0.21c-6.81,0-12.32,5.52-12.32,12.32s5.52,12.32,12.32,12.32S101,19.34,101,12.54
			S95.48,0.21,88.68,0.21z M88.68,21.46c-4.93,0-8.92-3.99-8.92-8.92c0-4.93,3.99-8.92,8.92-8.92c4.93,0,8.92,3.99,8.92,8.92
			C97.6,17.46,93.61,21.46,88.68,21.46z"/>
		<g id="XMLID_9_">
			<path class="st0" d="M72.79,4.68L72.79,4.68c-1.45,1.06-3.38,1.06-4.9,0.11c-1.46-0.92-3.22-1.43-5.09-1.36
				c-4.53,0.17-8.28,3.81-8.56,8.34c-0.33,5.19,3.79,9.5,8.91,9.5c1.78,0,3.44-0.52,4.83-1.42c1.38-0.89,3.2-0.61,4.16,0.71
				l0.08,0.11c-2.37,2.59-5.83,4.16-9.65,3.98c-6.22-0.28-11.33-5.29-11.72-11.51c-0.45-7.17,5.22-13.12,12.3-13.12
				C67.05,0.02,70.54,1.84,72.79,4.68z"/>
		</g>
		<ellipse class="st0" cx="28.15" cy="22.29" rx="1.77" ry="1.86"/>
		<path class="st0" d="M29.78,10.43c-0.89-5.78-5.89-10.2-11.92-10.2c-6.03,0-11.02,4.43-11.92,10.2H3.33
			C1.49,10.43,0,11.92,0,13.75v0h5.89c0.73,5.97,5.81,10.59,11.97,10.59v-0.19c0-1.64-1.1-3.04-2.66-3.54
			c-3.07-0.98-5.41-3.61-5.95-6.85h8.61h8.6h3.37c0.06-0.48,0.09-0.97,0.09-1.47C29.92,11.65,29.87,11.03,29.78,10.43z M17.86,10.43
			H9.33c0.85-3.93,4.35-6.87,8.53-6.87c4.19,0,7.68,2.94,8.53,6.87H17.86z"/>
	</g>
</g>
</svg>
